<?xml version="1.0" encoding="us-ascii" standalone="no"?><svg xmlns="http://www.w3.org/2000/svg" xmlns:xlink="http://www.w3.org/1999/xlink" contentStyleType="text/css" height="1626px" preserveAspectRatio="none" style="width:1652px;height:1626px;background:#FFFFFF;" version="1.1" viewBox="0 0 1652 1626" width="1652px" zoomAndPan="magnify"><defs/><g><rect fill="#F1F1F1" height="52.5938" rx="12.5" ry="12.5" style="stroke:#181818;stroke-width:1.5;" width="85" x="815" y="785.9336"/><text fill="#000000" font-family="sans-serif" font-size="14" lengthAdjust="spacing" textLength="36" x="825" y="808.9287">&#1057;&#1072;&#1081;&#1090;</text><text fill="#000000" font-family="sans-serif" font-size="14" font-weight="bold" lengthAdjust="spacing" textLength="65" x="825" y="825.2256">litres.ru</text><rect fill="#F1F1F1" height="36.2969" rx="12.5" ry="12.5" style="stroke:#181818;stroke-width:1.5;" width="221" x="950" y="76.2969"/><text fill="#000000" font-family="sans-serif" font-size="14" lengthAdjust="spacing" textLength="201" x="960" y="99.292">&#1056;&#1077;&#1075;&#1080;&#1089;&#1090;&#1088;&#1072;&#1094;&#1080;&#1103;/&#1072;&#1074;&#1090;&#1086;&#1088;&#1080;&#1079;&#1072;&#1094;&#1080;&#1103;</text><rect fill="#F1F1F1" height="36.2969" rx="12.5" ry="12.5" style="stroke:#181818;stroke-width:1.5;" width="87" x="1221" y="20"/><text fill="#000000" font-family="sans-serif" font-size="14" lengthAdjust="spacing" textLength="67" x="1231" y="42.9951">&#1058;&#1077;&#1083;&#1077;&#1092;&#1086;&#1085;</text><path d="M1171,94.4453 L1181,94.4453 C1196,94.4453 1196,38.1484 1211,38.1484 L1221,38.1484 " fill="none" style="stroke:#181818;stroke-width:1.0;"/><rect fill="#F1F1F1" height="36.2969" rx="12.5" ry="12.5" style="stroke:#181818;stroke-width:1.5;" width="59" x="1221" y="76.2969"/><text fill="#000000" font-family="sans-serif" font-size="14" lengthAdjust="spacing" textLength="39" x="1231" y="99.292">email</text><path d="M1171,94.4453 L1181,94.4453 C1196,94.4453 1196,94.4453 1211,94.4453 L1221,94.4453 " fill="none" style="stroke:#181818;stroke-width:1.0;"/><rect fill="#F1F1F1" height="36.2969" rx="12.5" ry="12.5" style="stroke:#181818;stroke-width:1.5;" width="82" x="1221" y="132.5938"/><text fill="#000000" font-family="sans-serif" font-size="14" lengthAdjust="spacing" textLength="62" x="1231" y="155.5889">&#1089;&#1086;&#1094;&#1089;&#1077;&#1090;&#1080;</text><path d="M1171,94.4453 L1181,94.4453 C1196,94.4453 1196,150.7422 1211,150.7422 L1221,150.7422 " fill="none" style="stroke:#181818;stroke-width:1.0;"/><path d="M900,812.2305 L910,812.2305 C925,812.2305 925,94.4453 940,94.4453 L950,94.4453 " fill="none" style="stroke:#181818;stroke-width:1.0;"/><rect fill="#F1F1F1" height="36.2969" rx="12.5" ry="12.5" style="stroke:#181818;stroke-width:1.5;" width="112" x="950" y="301.4844"/><text fill="#000000" font-family="sans-serif" font-size="14" lengthAdjust="spacing" textLength="92" x="960" y="324.4795">&#1053;&#1072;&#1081;&#1090;&#1080; &#1082;&#1085;&#1080;&#1075;&#1091;</text><rect fill="#F1F1F1" height="36.2969" rx="12.5" ry="12.5" style="stroke:#181818;stroke-width:1.5;" width="114" x="1112" y="188.8906"/><text fill="#000000" font-family="sans-serif" font-size="14" lengthAdjust="spacing" textLength="94" x="1122" y="211.8857">&#1087;&#1086; &#1085;&#1072;&#1079;&#1074;&#1072;&#1085;&#1080;&#1102;</text><path d="M1062,319.6328 L1072,319.6328 C1087,319.6328 1087,207.0391 1102,207.0391 L1112,207.0391 " fill="none" style="stroke:#181818;stroke-width:1.0;"/><rect fill="#F1F1F1" height="36.2969" rx="12.5" ry="12.5" style="stroke:#181818;stroke-width:1.5;" width="87" x="1112" y="245.1875"/><text fill="#000000" font-family="sans-serif" font-size="14" lengthAdjust="spacing" textLength="67" x="1122" y="268.1826">&#1087;&#1086; &#1089;&#1077;&#1088;&#1080;&#1080;</text><path d="M1062,319.6328 L1072,319.6328 C1087,319.6328 1087,263.3359 1102,263.3359 L1112,263.3359 " fill="none" style="stroke:#181818;stroke-width:1.0;"/><rect fill="#F1F1F1" height="36.2969" rx="12.5" ry="12.5" style="stroke:#181818;stroke-width:1.5;" width="95" x="1112" y="301.4844"/><text fill="#000000" font-family="sans-serif" font-size="14" lengthAdjust="spacing" textLength="75" x="1122" y="324.4795">&#1087;&#1086; &#1072;&#1074;&#1090;&#1086;&#1088;&#1091;</text><path d="M1062,319.6328 L1072,319.6328 C1087,319.6328 1087,319.6328 1102,319.6328 L1112,319.6328 " fill="none" style="stroke:#181818;stroke-width:1.0;"/><rect fill="#F1F1F1" height="36.2969" rx="12.5" ry="12.5" style="stroke:#181818;stroke-width:1.5;" width="90" x="1112" y="357.7813"/><text fill="#000000" font-family="sans-serif" font-size="14" lengthAdjust="spacing" textLength="70" x="1122" y="380.7764">&#1087;&#1086; &#1078;&#1072;&#1085;&#1088;&#1091;</text><path d="M1062,319.6328 L1072,319.6328 C1087,319.6328 1087,375.9297 1102,375.9297 L1112,375.9297 " fill="none" style="stroke:#181818;stroke-width:1.0;"/><rect fill="#F1F1F1" height="36.2969" rx="12.5" ry="12.5" style="stroke:#181818;stroke-width:1.5;" width="147" x="1112" y="414.0781"/><text fill="#000000" font-family="sans-serif" font-size="14" lengthAdjust="spacing" textLength="127" x="1122" y="437.0732">&#1087;&#1086; &#1080;&#1079;&#1076;&#1072;&#1090;&#1077;&#1083;&#1100;&#1089;&#1090;&#1074;&#1091;</text><path d="M1062,319.6328 L1072,319.6328 C1087,319.6328 1087,432.2266 1102,432.2266 L1112,432.2266 " fill="none" style="stroke:#181818;stroke-width:1.0;"/><path d="M900,812.2305 L910,812.2305 C925,812.2305 925,319.6328 940,319.6328 L950,319.6328 " fill="none" style="stroke:#181818;stroke-width:1.0;"/><rect fill="#F1F1F1" height="36.2969" rx="12.5" ry="12.5" style="stroke:#181818;stroke-width:1.5;" width="282" x="950" y="625.1914"/><text fill="#000000" font-family="sans-serif" font-size="14" lengthAdjust="spacing" textLength="262" x="960" y="648.1865">&#1054;&#1090;&#1092;&#1080;&#1083;&#1100;&#1090;&#1088;&#1086;&#1074;&#1072;&#1090;&#1100; &#1088;&#1077;&#1079;&#1091;&#1083;&#1100;&#1090;&#1072;&#1090; &#1087;&#1086;&#1080;&#1089;&#1082;&#1072;</text><rect fill="#F1F1F1" height="36.2969" rx="12.5" ry="12.5" style="stroke:#181818;stroke-width:1.5;" width="80" x="1282" y="498.5234"/><text fill="#000000" font-family="sans-serif" font-size="14" lengthAdjust="spacing" textLength="60" x="1292" y="521.5186">&#1092;&#1086;&#1088;&#1084;&#1072;&#1090;</text><rect fill="#F1F1F1" height="36.2969" rx="12.5" ry="12.5" style="stroke:#181818;stroke-width:1.5;" width="64" x="1412" y="470.375"/><text fill="#000000" font-family="sans-serif" font-size="14" lengthAdjust="spacing" textLength="44" x="1422" y="493.3701">&#1090;&#1077;&#1082;&#1089;&#1090;</text><path d="M1362,516.6719 L1372,516.6719 C1387,516.6719 1387,488.5234 1402,488.5234 L1412,488.5234 " fill="none" style="stroke:#181818;stroke-width:1.0;"/><rect fill="#F1F1F1" height="36.2969" rx="12.5" ry="12.5" style="stroke:#181818;stroke-width:1.5;" width="93" x="1412" y="526.6719"/><text fill="#000000" font-family="sans-serif" font-size="14" lengthAdjust="spacing" textLength="73" x="1422" y="549.667">&#1087;&#1086;&#1076;&#1082;&#1072;&#1089;&#1090;&#1099;</text><path d="M1362,516.6719 L1372,516.6719 C1387,516.6719 1387,544.8203 1402,544.8203 L1412,544.8203 " fill="none" style="stroke:#181818;stroke-width:1.0;"/><path d="M1232,643.3398 L1242,643.3398 C1257,643.3398 1257,516.6719 1272,516.6719 L1282,516.6719 " fill="none" style="stroke:#181818;stroke-width:1.0;"/><rect fill="#F1F1F1" height="36.2969" rx="12.5" ry="12.5" style="stroke:#181818;stroke-width:1.5;" width="57" x="1282" y="554.8203"/><text fill="#000000" font-family="sans-serif" font-size="14" lengthAdjust="spacing" textLength="37" x="1292" y="577.8154">&#1103;&#1079;&#1099;&#1082;</text><path d="M1232,643.3398 L1242,643.3398 C1257,643.3398 1257,572.9688 1272,572.9688 L1282,572.9688 " fill="none" style="stroke:#181818;stroke-width:1.0;"/><rect fill="#F1F1F1" height="36.2969" rx="12.5" ry="12.5" style="stroke:#181818;stroke-width:1.5;" width="83" x="1282" y="611.1172"/><text fill="#000000" font-family="sans-serif" font-size="14" lengthAdjust="spacing" textLength="63" x="1292" y="634.1123">&#1088;&#1077;&#1081;&#1090;&#1080;&#1085;&#1075;</text><path d="M1232,643.3398 L1242,643.3398 C1257,643.3398 1257,629.2656 1272,629.2656 L1282,629.2656 " fill="none" style="stroke:#181818;stroke-width:1.0;"/><rect fill="#F1F1F1" height="36.2969" rx="12.5" ry="12.5" style="stroke:#181818;stroke-width:1.5;" width="189" x="1282" y="667.4141"/><text fill="#000000" font-family="sans-serif" font-size="14" lengthAdjust="spacing" textLength="169" x="1292" y="690.4092">&#1076;&#1086;&#1089;&#1090;&#1091;&#1087;&#1085;&#1086; &#1087;&#1086; &#1087;&#1086;&#1076;&#1087;&#1080;&#1089;&#1082;&#1077;</text><path d="M1232,643.3398 L1242,643.3398 C1257,643.3398 1257,685.5625 1272,685.5625 L1282,685.5625 " fill="none" style="stroke:#181818;stroke-width:1.0;"/><rect fill="#F1F1F1" height="36.2969" rx="12.5" ry="12.5" style="stroke:#181818;stroke-width:1.5;" width="199" x="1282" y="723.7109"/><text fill="#000000" font-family="sans-serif" font-size="14" lengthAdjust="spacing" textLength="179" x="1292" y="746.7061">&#1076;&#1086;&#1089;&#1090;&#1091;&#1087;&#1085;&#1086; &#1074; &#1072;&#1073;&#1086;&#1085;&#1077;&#1084;&#1077;&#1085;&#1090;&#1077;</text><path d="M1232,643.3398 L1242,643.3398 C1257,643.3398 1257,741.8594 1272,741.8594 L1282,741.8594 " fill="none" style="stroke:#181818;stroke-width:1.0;"/><rect fill="#F1F1F1" height="36.2969" rx="12.5" ry="12.5" style="stroke:#181818;stroke-width:1.5;" width="124" x="1282" y="780.0078"/><text fill="#000000" font-family="sans-serif" font-size="14" lengthAdjust="spacing" textLength="104" x="1292" y="803.0029">&#1072;&#1074;&#1090;&#1086;&#1088; &#1051;&#1080;&#1090;&#1088;&#1077;&#1089;</text><path d="M1232,643.3398 L1242,643.3398 C1257,643.3398 1257,798.1563 1272,798.1563 L1282,798.1563 " fill="none" style="stroke:#181818;stroke-width:1.0;"/><path d="M900,812.2305 L910,812.2305 C925,812.2305 925,643.3398 940,643.3398 L950,643.3398 " fill="none" style="stroke:#181818;stroke-width:1.0;"/><rect fill="#F1F1F1" height="36.2969" rx="12.5" ry="12.5" style="stroke:#181818;stroke-width:1.5;" width="221" x="950" y="977.0469"/><text fill="#000000" font-family="sans-serif" font-size="14" lengthAdjust="spacing" textLength="201" x="960" y="1000.042">&#1044;&#1086;&#1073;&#1072;&#1074;&#1080;&#1090;&#1100; &#1090;&#1086;&#1074;&#1072;&#1088; &#1074; &#1082;&#1086;&#1088;&#1079;&#1080;&#1085;&#1091;</text><rect fill="#F1F1F1" height="36.2969" rx="12.5" ry="12.5" style="stroke:#181818;stroke-width:1.5;" width="137" x="1221" y="836.3047"/><text fill="#000000" font-family="sans-serif" font-size="14" lengthAdjust="spacing" textLength="117" x="1231" y="859.2998">&#1055;&#1077;&#1095;&#1072;&#1090;&#1085;&#1072;&#1103; &#1082;&#1085;&#1080;&#1075;&#1072;</text><path d="M1171,995.1953 L1181,995.1953 C1196,995.1953 1196,854.4531 1211,854.4531 L1221,854.4531 " fill="none" style="stroke:#181818;stroke-width:1.0;"/><rect fill="#F1F1F1" height="36.2969" rx="12.5" ry="12.5" style="stroke:#181818;stroke-width:1.5;" width="167" x="1221" y="892.6016"/><text fill="#000000" font-family="sans-serif" font-size="14" lengthAdjust="spacing" textLength="147" x="1231" y="915.5967">&#1069;&#1083;&#1077;&#1082;&#1090;&#1088;&#1086;&#1085;&#1085;&#1072;&#1103; &#1082;&#1085;&#1080;&#1075;&#1072;</text><path d="M1171,995.1953 L1181,995.1953 C1196,995.1953 1196,910.75 1211,910.75 L1221,910.75 " fill="none" style="stroke:#181818;stroke-width:1.0;"/><rect fill="#F1F1F1" height="36.2969" rx="12.5" ry="12.5" style="stroke:#181818;stroke-width:1.5;" width="109" x="1221" y="948.8984"/><text fill="#000000" font-family="sans-serif" font-size="14" lengthAdjust="spacing" textLength="89" x="1231" y="971.8936">&#1040;&#1091;&#1076;&#1080;&#1086;&#1082;&#1085;&#1080;&#1075;&#1072;</text><path d="M1171,995.1953 L1181,995.1953 C1196,995.1953 1196,967.0469 1211,967.0469 L1221,967.0469 " fill="none" style="stroke:#181818;stroke-width:1.0;"/><rect fill="#F1F1F1" height="36.2969" rx="12.5" ry="12.5" style="stroke:#181818;stroke-width:1.5;" width="92" x="1221" y="1005.1953"/><text fill="#000000" font-family="sans-serif" font-size="14" lengthAdjust="spacing" textLength="72" x="1231" y="1028.1904">&#1055;&#1086;&#1076;&#1087;&#1080;&#1089;&#1082;&#1072;</text><path d="M1171,995.1953 L1181,995.1953 C1196,995.1953 1196,1023.3438 1211,1023.3438 L1221,1023.3438 " fill="none" style="stroke:#181818;stroke-width:1.0;"/><rect fill="#F1F1F1" height="36.2969" rx="12.5" ry="12.5" style="stroke:#181818;stroke-width:1.5;" width="104" x="1221" y="1061.4922"/><text fill="#000000" font-family="sans-serif" font-size="14" lengthAdjust="spacing" textLength="84" x="1231" y="1084.4873">&#1040;&#1073;&#1086;&#1085;&#1077;&#1084;&#1077;&#1085;&#1090;</text><path d="M1171,995.1953 L1181,995.1953 C1196,995.1953 1196,1079.6406 1211,1079.6406 L1221,1079.6406 " fill="none" style="stroke:#181818;stroke-width:1.0;"/><rect fill="#F1F1F1" height="36.2969" rx="12.5" ry="12.5" style="stroke:#181818;stroke-width:1.5;" width="85" x="1221" y="1117.7891"/><text fill="#000000" font-family="sans-serif" font-size="14" lengthAdjust="spacing" textLength="65" x="1231" y="1140.7842">&#1055;&#1086;&#1076;&#1072;&#1088;&#1086;&#1082;</text><path d="M1171,995.1953 L1181,995.1953 C1196,995.1953 1196,1135.9375 1211,1135.9375 L1221,1135.9375 " fill="none" style="stroke:#181818;stroke-width:1.0;"/><path d="M900,812.2305 L910,812.2305 C925,812.2305 925,995.1953 940,995.1953 L950,995.1953 " fill="none" style="stroke:#181818;stroke-width:1.0;"/><rect fill="#F1F1F1" height="36.2969" rx="12.5" ry="12.5" style="stroke:#181818;stroke-width:1.5;" width="183" x="950" y="1202.2344"/><text fill="#000000" font-family="sans-serif" font-size="14" lengthAdjust="spacing" textLength="163" x="960" y="1225.2295">&#1054;&#1087;&#1077;&#1088;&#1072;&#1094;&#1080;&#1080; &#1089; &#1082;&#1086;&#1088;&#1079;&#1080;&#1085;&#1086;&#1081;</text><rect fill="#F1F1F1" height="36.2969" rx="12.5" ry="12.5" style="stroke:#181818;stroke-width:1.5;" width="146" x="1183" y="1174.0859"/><text fill="#000000" font-family="sans-serif" font-size="14" lengthAdjust="spacing" textLength="126" x="1193" y="1197.0811">&#1054;&#1092;&#1086;&#1088;&#1084;&#1080;&#1090;&#1100; &#1079;&#1072;&#1082;&#1072;&#1079;</text><path d="M1133,1220.3828 L1143,1220.3828 C1158,1220.3828 1158,1192.2344 1173,1192.2344 L1183,1192.2344 " fill="none" style="stroke:#181818;stroke-width:1.0;"/><rect fill="#F1F1F1" height="36.2969" rx="12.5" ry="12.5" style="stroke:#181818;stroke-width:1.5;" width="158" x="1183" y="1230.3828"/><text fill="#000000" font-family="sans-serif" font-size="14" lengthAdjust="spacing" textLength="138" x="1193" y="1253.3779">&#1054;&#1095;&#1080;&#1089;&#1090;&#1080;&#1090;&#1100; &#1082;&#1086;&#1088;&#1079;&#1080;&#1085;&#1091;</text><path d="M1133,1220.3828 L1143,1220.3828 C1158,1220.3828 1158,1248.5313 1173,1248.5313 L1183,1248.5313 " fill="none" style="stroke:#181818;stroke-width:1.0;"/><path d="M900,812.2305 L910,812.2305 C925,812.2305 925,1220.3828 940,1220.3828 L950,1220.3828 " fill="none" style="stroke:#181818;stroke-width:1.0;"/><rect fill="#F1F1F1" height="36.2969" rx="12.5" ry="12.5" style="stroke:#181818;stroke-width:1.5;" width="233" x="950" y="1314.8281"/><text fill="#000000" font-family="sans-serif" font-size="14" lengthAdjust="spacing" textLength="213" x="960" y="1337.8232">&#1054;&#1087;&#1083;&#1072;&#1090;&#1080;&#1090;&#1100; &#1090;&#1086;&#1074;&#1072;&#1088;&#1099; &#1074; &#1082;&#1086;&#1088;&#1079;&#1080;&#1085;&#1077;</text><rect fill="#F1F1F1" height="36.2969" rx="12.5" ry="12.5" style="stroke:#181818;stroke-width:1.5;" width="237" x="1233" y="1286.6797"/><text fill="#000000" font-family="sans-serif" font-size="14" lengthAdjust="spacing" textLength="217" x="1243" y="1309.6748">&#1050;&#1088;&#1077;&#1076;&#1080;&#1090;&#1085;&#1086;&#1081;/&#1073;&#1086;&#1085;&#1091;&#1089;&#1085;&#1086;&#1081; &#1082;&#1072;&#1088;&#1090;&#1086;&#1081;</text><path d="M1183,1332.9766 L1193,1332.9766 C1208,1332.9766 1208,1304.8281 1223,1304.8281 L1233,1304.8281 " fill="none" style="stroke:#181818;stroke-width:1.0;"/><rect fill="#F1F1F1" height="36.2969" rx="12.5" ry="12.5" style="stroke:#181818;stroke-width:1.5;" width="136" x="1233" y="1342.9766"/><text fill="#000000" font-family="sans-serif" font-size="14" lengthAdjust="spacing" textLength="116" x="1243" y="1365.9717">&#1063;&#1077;&#1088;&#1077;&#1079; &#1090;&#1077;&#1083;&#1077;&#1092;&#1086;&#1085;</text><path d="M1183,1332.9766 L1193,1332.9766 C1208,1332.9766 1208,1361.125 1223,1361.125 L1233,1361.125 " fill="none" style="stroke:#181818;stroke-width:1.0;"/><path d="M900,812.2305 L910,812.2305 C925,812.2305 925,1332.9766 940,1332.9766 L950,1332.9766 " fill="none" style="stroke:#181818;stroke-width:1.0;"/><rect fill="#F1F1F1" height="36.2969" rx="12.5" ry="12.5" style="stroke:#181818;stroke-width:1.5;" width="156" x="950" y="1483.7188"/><text fill="#000000" font-family="sans-serif" font-size="14" lengthAdjust="spacing" textLength="136" x="960" y="1506.7139">&#1055;&#1086;&#1083;&#1091;&#1095;&#1080;&#1090;&#1100; &#1087;&#1086;&#1082;&#1091;&#1087;&#1082;&#1091;</text><rect fill="#F1F1F1" height="36.2969" rx="12.5" ry="12.5" style="stroke:#181818;stroke-width:1.5;" width="189" x="1156" y="1427.4219"/><text fill="#000000" font-family="sans-serif" font-size="14" lengthAdjust="spacing" textLength="169" x="1166" y="1450.417">&#1069;&#1083;&#1077;&#1082;&#1090;&#1088;&#1086;&#1085;&#1085;&#1099;&#1081; &#1074;&#1072;&#1088;&#1080;&#1072;&#1085;&#1090;</text><rect fill="#F1F1F1" height="36.2969" rx="12.5" ry="12.5" style="stroke:#181818;stroke-width:1.5;" width="81" x="1395" y="1399.2734"/><text fill="#000000" font-family="sans-serif" font-size="14" lengthAdjust="spacing" textLength="61" x="1405" y="1422.2686">&#1057;&#1082;&#1072;&#1095;&#1072;&#1090;&#1100;</text><path d="M1345,1445.5703 L1355,1445.5703 C1370,1445.5703 1370,1417.4219 1385,1417.4219 L1395,1417.4219 " fill="none" style="stroke:#181818;stroke-width:1.0;"/><rect fill="#F1F1F1" height="36.2969" rx="12.5" ry="12.5" style="stroke:#181818;stroke-width:1.5;" width="245" x="1395" y="1455.5703"/><text fill="#000000" font-family="sans-serif" font-size="14" lengthAdjust="spacing" textLength="225" x="1405" y="1478.5654">&#1044;&#1086;&#1073;&#1072;&#1074;&#1080;&#1090;&#1100; &#1085;&#1072; &#1089;&#1074;&#1086;&#1077; &#1091;&#1089;&#1090;&#1088;&#1086;&#1081;&#1089;&#1090;&#1074;&#1086;</text><path d="M1345,1445.5703 L1355,1445.5703 C1370,1445.5703 1370,1473.7188 1385,1473.7188 L1395,1473.7188 " fill="none" style="stroke:#181818;stroke-width:1.0;"/><path d="M1106,1501.8672 L1116,1501.8672 C1131,1501.8672 1131,1445.5703 1146,1445.5703 L1156,1445.5703 " fill="none" style="stroke:#181818;stroke-width:1.0;"/><rect fill="#F1F1F1" height="36.2969" rx="12.5" ry="12.5" style="stroke:#181818;stroke-width:1.5;" width="165" x="1156" y="1540.0156"/><text fill="#000000" font-family="sans-serif" font-size="14" lengthAdjust="spacing" textLength="145" x="1166" y="1563.0107">&#1041;&#1091;&#1084;&#1072;&#1078;&#1085;&#1099;&#1081; &#1074;&#1072;&#1088;&#1080;&#1072;&#1085;&#1090;</text><rect fill="#F1F1F1" height="36.2969" rx="12.5" ry="12.5" style="stroke:#181818;stroke-width:1.5;" width="162" x="1371" y="1511.8672"/><text fill="#000000" font-family="sans-serif" font-size="14" lengthAdjust="spacing" textLength="142" x="1381" y="1534.8623">&#1047;&#1072;&#1082;&#1072;&#1079;&#1072;&#1090;&#1100; &#1076;&#1086;&#1089;&#1090;&#1072;&#1074;&#1082;&#1091;</text><path d="M1321,1558.1641 L1331,1558.1641 C1346,1558.1641 1346,1530.0156 1361,1530.0156 L1371,1530.0156 " fill="none" style="stroke:#181818;stroke-width:1.0;"/><rect fill="#F1F1F1" height="36.2969" rx="12.5" ry="12.5" style="stroke:#181818;stroke-width:1.5;" width="187" x="1371" y="1568.1641"/><text fill="#000000" font-family="sans-serif" font-size="14" lengthAdjust="spacing" textLength="167" x="1381" y="1591.1592">&#1054;&#1092;&#1086;&#1088;&#1084;&#1080;&#1090;&#1100; &#1089;&#1072;&#1084;&#1086;&#1074;&#1099;&#1074;&#1086;&#1079;</text><path d="M1321,1558.1641 L1331,1558.1641 C1346,1558.1641 1346,1586.3125 1361,1586.3125 L1371,1586.3125 " fill="none" style="stroke:#181818;stroke-width:1.0;"/><path d="M1106,1501.8672 L1116,1501.8672 C1131,1501.8672 1131,1558.1641 1146,1558.1641 L1156,1558.1641 " fill="none" style="stroke:#181818;stroke-width:1.0;"/><path d="M900,812.2305 L910,812.2305 C925,812.2305 925,1501.8672 940,1501.8672 L950,1501.8672 " fill="none" style="stroke:#181818;stroke-width:1.0;"/><rect fill="#F1F1F1" height="36.2969" rx="12.5" ry="12.5" style="stroke:#181818;stroke-width:1.5;" width="151" x="614" y="329.6328"/><text fill="#000000" font-family="sans-serif" font-size="14" lengthAdjust="spacing" textLength="131" x="624" y="352.6279">&#1056;&#1072;&#1073;&#1086;&#1090;&#1072; &#1089;&#1086; &#1089;&#1095;&#1077;&#1090;&#1086;&#1084;</text><rect fill="#F1F1F1" height="36.2969" rx="12.5" ry="12.5" style="stroke:#181818;stroke-width:1.5;" width="374" x="190" y="245.1875"/><text fill="#000000" font-family="sans-serif" font-size="14" lengthAdjust="spacing" textLength="354" x="200" y="268.1826">&#1044;&#1086;&#1073;&#1072;&#1074;&#1080;&#1090;&#1100;/&#1091;&#1076;&#1072;&#1083;&#1080;&#1090;&#1100; &#1082;&#1088;&#1077;&#1076;&#1080;&#1090;&#1085;&#1091;&#1102;/&#1073;&#1086;&#1085;&#1091;&#1089;&#1085;&#1091;&#1102; &#1082;&#1072;&#1088;&#1090;&#1091;</text><path d="M614,347.7813 L604,347.7813 C589,347.7813 589,263.3359 574,263.3359 L564,263.3359 " fill="none" style="stroke:#181818;stroke-width:1.0;"/><rect fill="#F1F1F1" height="36.2969" rx="12.5" ry="12.5" style="stroke:#181818;stroke-width:1.5;" width="240" x="324" y="301.4844"/><text fill="#000000" font-family="sans-serif" font-size="14" lengthAdjust="spacing" textLength="220" x="334" y="324.4795">&#1054;&#1090;&#1086;&#1073;&#1088;&#1072;&#1079;&#1080;&#1090;&#1100; &#1089;&#1086;&#1089;&#1090;&#1086;&#1103;&#1085;&#1080;&#1077; &#1089;&#1095;&#1077;&#1090;&#1072;</text><path d="M614,347.7813 L604,347.7813 C589,347.7813 589,319.6328 574,319.6328 L564,319.6328 " fill="none" style="stroke:#181818;stroke-width:1.0;"/><rect fill="#F1F1F1" height="36.2969" rx="12.5" ry="12.5" style="stroke:#181818;stroke-width:1.5;" width="140" x="424" y="357.7813"/><text fill="#000000" font-family="sans-serif" font-size="14" lengthAdjust="spacing" textLength="120" x="434" y="380.7764">&#1055;&#1086;&#1087;&#1086;&#1083;&#1085;&#1080;&#1090;&#1100; &#1089;&#1095;&#1077;&#1090;</text><path d="M614,347.7813 L604,347.7813 C589,347.7813 589,375.9297 574,375.9297 L564,375.9297 " fill="none" style="stroke:#181818;stroke-width:1.0;"/><rect fill="#F1F1F1" height="36.2969" rx="12.5" ry="12.5" style="stroke:#181818;stroke-width:1.5;" width="237" x="327" y="414.0781"/><text fill="#000000" font-family="sans-serif" font-size="14" lengthAdjust="spacing" textLength="217" x="337" y="437.0732">&#1055;&#1086;&#1082;&#1072;&#1079;&#1072;&#1090;&#1100; &#1080;&#1089;&#1090;&#1086;&#1088;&#1080;&#1102; &#1086;&#1087;&#1077;&#1088;&#1072;&#1094;&#1080;&#1081;</text><path d="M614,347.7813 L604,347.7813 C589,347.7813 589,432.2266 574,432.2266 L564,432.2266 " fill="none" style="stroke:#181818;stroke-width:1.0;"/><path d="M815,812.2305 L805,812.2305 C790,812.2305 790,347.7813 775,347.7813 L765,347.7813 " fill="none" style="stroke:#181818;stroke-width:1.0;"/><rect fill="#F1F1F1" height="36.2969" rx="12.5" ry="12.5" style="stroke:#181818;stroke-width:1.5;" width="193" x="572" y="470.375"/><text fill="#000000" font-family="sans-serif" font-size="14" lengthAdjust="spacing" textLength="173" x="582" y="493.3701">&#1057;&#1090;&#1072;&#1090;&#1100; &#1072;&#1074;&#1090;&#1086;&#1088;&#1086;&#1084; &#1051;&#1080;&#1090;&#1088;&#1077;&#1089;</text><path d="M815,812.2305 L805,812.2305 C790,812.2305 790,488.5234 775,488.5234 L765,488.5234 " fill="none" style="stroke:#181818;stroke-width:1.0;"/><rect fill="#F1F1F1" height="36.2969" rx="12.5" ry="12.5" style="stroke:#181818;stroke-width:1.5;" width="275" x="490" y="526.6719"/><text fill="#000000" font-family="sans-serif" font-size="14" lengthAdjust="spacing" textLength="255" x="500" y="549.667">&#1054;&#1073;&#1088;&#1072;&#1090;&#1080;&#1090;&#1100;&#1089;&#1103; &#1074; &#1089;&#1083;&#1091;&#1078;&#1073;&#1072; &#1087;&#1086;&#1076;&#1076;&#1077;&#1088;&#1078;&#1082;&#1080;</text><path d="M815,812.2305 L805,812.2305 C790,812.2305 790,544.8203 775,544.8203 L765,544.8203 " fill="none" style="stroke:#181818;stroke-width:1.0;"/><rect fill="#F1F1F1" height="36.2969" rx="12.5" ry="12.5" style="stroke:#181818;stroke-width:1.5;" width="167" x="598" y="751.8594"/><text fill="#000000" font-family="sans-serif" font-size="14" lengthAdjust="spacing" textLength="147" x="608" y="774.8545">&#1056;&#1072;&#1073;&#1086;&#1090;&#1072; &#1089; &#1087;&#1088;&#1086;&#1092;&#1080;&#1083;&#1077;&#1084;</text><rect fill="#F1F1F1" height="36.2969" rx="12.5" ry="12.5" style="stroke:#181818;stroke-width:1.5;" width="149" x="399" y="611.1172"/><text fill="#000000" font-family="sans-serif" font-size="14" lengthAdjust="spacing" textLength="129" x="409" y="634.1123">&#1053;&#1072;&#1089;&#1090;&#1088;&#1086;&#1081;&#1082;&#1080; &#1074;&#1093;&#1086;&#1076;&#1072;</text><rect fill="#F1F1F1" height="36.2969" rx="12.5" ry="12.5" style="stroke:#181818;stroke-width:1.5;" width="213" x="136" y="582.9688"/><text fill="#000000" font-family="sans-serif" font-size="14" lengthAdjust="spacing" textLength="193" x="146" y="605.9639">&#1048;&#1079;&#1084;&#1077;&#1085;&#1080;&#1090;&#1100; &#1090;&#1077;&#1083;&#1077;&#1092;&#1086;&#1085;/&#1087;&#1086;&#1095;&#1090;&#1091;</text><path d="M399,629.2656 L389,629.2656 C374,629.2656 374,601.1172 359,601.1172 L349,601.1172 " fill="none" style="stroke:#181818;stroke-width:1.0;"/><rect fill="#F1F1F1" height="36.2969" rx="12.5" ry="12.5" style="stroke:#181818;stroke-width:1.5;" width="167" x="182" y="639.2656"/><text fill="#000000" font-family="sans-serif" font-size="14" lengthAdjust="spacing" textLength="147" x="192" y="662.2607">&#1055;&#1088;&#1080;&#1074;&#1103;&#1079;&#1072;&#1090;&#1100; &#1089;&#1086;&#1094;&#1089;&#1077;&#1090;&#1100;</text><path d="M399,629.2656 L389,629.2656 C374,629.2656 374,657.4141 359,657.4141 L349,657.4141 " fill="none" style="stroke:#181818;stroke-width:1.0;"/><path d="M598,770.0078 L588,770.0078 C573,770.0078 573,629.2656 558,629.2656 L548,629.2656 " fill="none" style="stroke:#181818;stroke-width:1.0;"/><rect fill="#F1F1F1" height="36.2969" rx="12.5" ry="12.5" style="stroke:#181818;stroke-width:1.5;" width="174" x="374" y="723.7109"/><text fill="#000000" font-family="sans-serif" font-size="14" lengthAdjust="spacing" textLength="154" x="384" y="746.7061">&#1048;&#1079;&#1084;&#1077;&#1085;&#1080;&#1090;&#1100; "&#1054;&#1073;&#1086; &#1084;&#1085;&#1077;"</text><rect fill="#F1F1F1" height="36.2969" rx="12.5" ry="12.5" style="stroke:#181818;stroke-width:1.5;" width="255" x="69" y="695.5625"/><text fill="#000000" font-family="sans-serif" font-size="14" lengthAdjust="spacing" textLength="235" x="79" y="718.5576">&#1044;&#1086;&#1073;&#1072;&#1074;&#1080;&#1090;&#1100;/&#1091;&#1073;&#1088;&#1072;&#1090;&#1100; &#1092;&#1086;&#1090;&#1086;&#1075;&#1088;&#1072;&#1092;&#1080;&#1102;</text><path d="M374,741.8594 L364,741.8594 C349,741.8594 349,713.7109 334,713.7109 L324,713.7109 " fill="none" style="stroke:#181818;stroke-width:1.0;"/><rect fill="#F1F1F1" height="36.2969" rx="12.5" ry="12.5" style="stroke:#181818;stroke-width:1.5;" width="314" x="10" y="751.8594"/><text fill="#000000" font-family="sans-serif" font-size="14" lengthAdjust="spacing" textLength="294" x="20" y="774.8545">&#1044;&#1086;&#1073;&#1072;&#1074;&#1080;&#1090;&#1100;/&#1091;&#1073;&#1088;&#1072;&#1090;&#1100; &#1060;&#1048;&#1054;, &#1076;&#1072;&#1090;&#1091; &#1088;&#1086;&#1078;&#1076;&#1077;&#1085;&#1080;&#1103;</text><path d="M374,741.8594 L364,741.8594 C349,741.8594 349,770.0078 334,770.0078 L324,770.0078 " fill="none" style="stroke:#181818;stroke-width:1.0;"/><path d="M598,770.0078 L588,770.0078 C573,770.0078 573,741.8594 558,741.8594 L548,741.8594 " fill="none" style="stroke:#181818;stroke-width:1.0;"/><rect fill="#F1F1F1" height="36.2969" rx="12.5" ry="12.5" style="stroke:#181818;stroke-width:1.5;" width="272" x="276" y="808.1563"/><text fill="#000000" font-family="sans-serif" font-size="14" lengthAdjust="spacing" textLength="252" x="286" y="831.1514">&#1054;&#1090;&#1086;&#1073;&#1088;&#1072;&#1079;&#1080;&#1090;&#1100; &#1089;&#1087;&#1080;&#1089;&#1086;&#1082; &#1091;&#1074;&#1077;&#1076;&#1086;&#1084;&#1083;&#1077;&#1085;&#1080;&#1081;</text><path d="M598,770.0078 L588,770.0078 C573,770.0078 573,826.3047 558,826.3047 L548,826.3047 " fill="none" style="stroke:#181818;stroke-width:1.0;"/><rect fill="#F1F1F1" height="36.2969" rx="12.5" ry="12.5" style="stroke:#181818;stroke-width:1.5;" width="283" x="265" y="864.4531"/><text fill="#000000" font-family="sans-serif" font-size="14" lengthAdjust="spacing" textLength="263" x="275" y="887.4482">&#1048;&#1079;&#1084;&#1077;&#1085;&#1080;&#1090;&#1100; &#1085;&#1072;&#1089;&#1090;&#1088;&#1086;&#1081;&#1082;&#1080; &#1091;&#1074;&#1077;&#1076;&#1086;&#1084;&#1083;&#1077;&#1085;&#1080;&#1081;</text><path d="M598,770.0078 L588,770.0078 C573,770.0078 573,882.6016 558,882.6016 L548,882.6016 " fill="none" style="stroke:#181818;stroke-width:1.0;"/><rect fill="#F1F1F1" height="36.2969" rx="12.5" ry="12.5" style="stroke:#181818;stroke-width:1.5;" width="254" x="294" y="920.75"/><text fill="#000000" font-family="sans-serif" font-size="14" lengthAdjust="spacing" textLength="234" x="304" y="943.7451">&#1048;&#1079;&#1084;&#1077;&#1085;&#1080;&#1090;&#1100; &#1085;&#1072;&#1089;&#1090;&#1088;&#1086;&#1081;&#1082;&#1080; &#1088;&#1072;&#1089;&#1089;&#1099;&#1083;&#1082;&#1080;</text><path d="M598,770.0078 L588,770.0078 C573,770.0078 573,938.8984 558,938.8984 L548,938.8984 " fill="none" style="stroke:#181818;stroke-width:1.0;"/><path d="M815,812.2305 L805,812.2305 C790,812.2305 790,770.0078 775,770.0078 L765,770.0078 " fill="none" style="stroke:#181818;stroke-width:1.0;"/><rect fill="#F1F1F1" height="36.2969" rx="12.5" ry="12.5" style="stroke:#181818;stroke-width:1.5;" width="244" x="521" y="1061.4922"/><text fill="#000000" font-family="sans-serif" font-size="14" lengthAdjust="spacing" textLength="224" x="531" y="1084.4873">&#1056;&#1072;&#1073;&#1086;&#1090;&#1072; &#1089; "&#1051;&#1080;&#1090;&#1056;&#1077;&#1089; &#1040;&#1073;&#1086;&#1085;&#1077;&#1084;&#1077;&#1085;&#1090;"</text><rect fill="#F1F1F1" height="36.2969" rx="12.5" ry="12.5" style="stroke:#181818;stroke-width:1.5;" width="134" x="337" y="977.0469"/><text fill="#000000" font-family="sans-serif" font-size="14" lengthAdjust="spacing" textLength="114" x="347" y="1000.042">&#1042;&#1099;&#1073;&#1088;&#1072;&#1090;&#1100; &#1082;&#1085;&#1080;&#1075;&#1080;</text><path d="M521,1079.6406 L511,1079.6406 C496,1079.6406 496,995.1953 481,995.1953 L471,995.1953 " fill="none" style="stroke:#181818;stroke-width:1.0;"/><rect fill="#F1F1F1" height="36.2969" rx="12.5" ry="12.5" style="stroke:#181818;stroke-width:1.5;" width="149" x="322" y="1033.3438"/><text fill="#000000" font-family="sans-serif" font-size="14" lengthAdjust="spacing" textLength="129" x="332" y="1056.3389">&#1055;&#1088;&#1080;&#1074;&#1103;&#1079;&#1072;&#1090;&#1100; &#1082;&#1072;&#1088;&#1090;&#1091;</text><path d="M521,1079.6406 L511,1079.6406 C496,1079.6406 496,1051.4922 481,1051.4922 L471,1051.4922 " fill="none" style="stroke:#181818;stroke-width:1.0;"/><rect fill="#F1F1F1" height="36.2969" rx="12.5" ry="12.5" style="stroke:#181818;stroke-width:1.5;" width="331" x="140" y="1089.6406"/><text fill="#000000" font-family="sans-serif" font-size="14" lengthAdjust="spacing" textLength="311" x="150" y="1112.6357">&#1054;&#1090;&#1086;&#1073;&#1088;&#1072;&#1079;&#1080;&#1090;&#1100; &#1080;&#1085;&#1092;&#1086;&#1088;&#1084;&#1072;&#1094;&#1080;&#1102; &#1087;&#1086; &#1072;&#1073;&#1086;&#1085;&#1077;&#1084;&#1077;&#1085;&#1090;&#1091;</text><path d="M521,1079.6406 L511,1079.6406 C496,1079.6406 496,1107.7891 481,1107.7891 L471,1107.7891 " fill="none" style="stroke:#181818;stroke-width:1.0;"/><rect fill="#F1F1F1" height="36.2969" rx="12.5" ry="12.5" style="stroke:#181818;stroke-width:1.5;" width="331" x="140" y="1145.9375"/><text fill="#000000" font-family="sans-serif" font-size="14" lengthAdjust="spacing" textLength="311" x="150" y="1168.9326">&#1054;&#1073;&#1088;&#1072;&#1090;&#1080;&#1090;&#1100;&#1089;&#1103; &#1074; &#1087;&#1088;&#1080;&#1086;&#1088;&#1080;&#1090;&#1077;&#1090;&#1085;&#1091;&#1102; &#1087;&#1086;&#1076;&#1076;&#1077;&#1088;&#1078;&#1082;&#1091;</text><path d="M521,1079.6406 L511,1079.6406 C496,1079.6406 496,1164.0859 481,1164.0859 L471,1164.0859 " fill="none" style="stroke:#181818;stroke-width:1.0;"/><path d="M815,812.2305 L805,812.2305 C790,812.2305 790,1079.6406 775,1079.6406 L765,1079.6406 " fill="none" style="stroke:#181818;stroke-width:1.0;"/><rect fill="#F1F1F1" height="36.2969" rx="12.5" ry="12.5" style="stroke:#181818;stroke-width:1.5;" width="245" x="520" y="1117.7891"/><text fill="#000000" font-family="sans-serif" font-size="14" lengthAdjust="spacing" textLength="225" x="530" y="1140.7842">&#1063;&#1080;&#1090;&#1072;&#1090;&#1100;/&#1089;&#1083;&#1091;&#1096;&#1072;&#1090;&#1100; &#1082;&#1085;&#1080;&#1075;&#1091; &#1086;&#1085;&#1083;&#1072;&#1081;&#1085;</text><path d="M815,812.2305 L805,812.2305 C790,812.2305 790,1135.9375 775,1135.9375 L765,1135.9375 " fill="none" style="stroke:#181818;stroke-width:1.0;"/><rect fill="#F1F1F1" height="36.2969" rx="12.5" ry="12.5" style="stroke:#181818;stroke-width:1.5;" width="187" x="578" y="1174.0859"/><text fill="#000000" font-family="sans-serif" font-size="14" lengthAdjust="spacing" textLength="167" x="588" y="1197.0811">&#1047;&#1072;&#1075;&#1088;&#1091;&#1079;&#1080;&#1090;&#1100; &#1089;&#1074;&#1086;&#1102; &#1082;&#1085;&#1080;&#1075;&#1091;</text><path d="M815,812.2305 L805,812.2305 C790,812.2305 790,1192.2344 775,1192.2344 L765,1192.2344 " fill="none" style="stroke:#181818;stroke-width:1.0;"/><rect fill="#F1F1F1" height="36.2969" rx="12.5" ry="12.5" style="stroke:#181818;stroke-width:1.5;" width="142" x="623" y="1286.6797"/><text fill="#000000" font-family="sans-serif" font-size="14" lengthAdjust="spacing" textLength="122" x="633" y="1309.6748">&#1050;&#1091;&#1087;&#1080;&#1090;&#1100; &#1087;&#1086;&#1076;&#1072;&#1088;&#1086;&#1082;</text><rect fill="#F1F1F1" height="36.2969" rx="12.5" ry="12.5" style="stroke:#181818;stroke-width:1.5;" width="92" x="481" y="1230.3828"/><text fill="#000000" font-family="sans-serif" font-size="14" lengthAdjust="spacing" textLength="72" x="491" y="1253.3779">&#1055;&#1086;&#1076;&#1087;&#1080;&#1089;&#1082;&#1072;</text><path d="M623,1304.8281 L613,1304.8281 C598,1304.8281 598,1248.5313 583,1248.5313 L573,1248.5313 " fill="none" style="stroke:#181818;stroke-width:1.0;"/><rect fill="#F1F1F1" height="36.2969" rx="12.5" ry="12.5" style="stroke:#181818;stroke-width:1.5;" width="104" x="469" y="1286.6797"/><text fill="#000000" font-family="sans-serif" font-size="14" lengthAdjust="spacing" textLength="84" x="479" y="1309.6748">&#1040;&#1073;&#1086;&#1085;&#1077;&#1084;&#1077;&#1085;&#1090;</text><path d="M623,1304.8281 L613,1304.8281 C598,1304.8281 598,1304.8281 583,1304.8281 L573,1304.8281 " fill="none" style="stroke:#181818;stroke-width:1.0;"/><rect fill="#F1F1F1" height="36.2969" rx="12.5" ry="12.5" style="stroke:#181818;stroke-width:1.5;" width="186" x="387" y="1342.9766"/><text fill="#000000" font-family="sans-serif" font-size="14" lengthAdjust="spacing" textLength="166" x="397" y="1365.9717">&#1057;&#1077;&#1088;&#1090;&#1080;&#1092;&#1080;&#1082;&#1072;&#1090; &#1085;&#1072; &#1089;&#1091;&#1084;&#1084;&#1091;</text><path d="M623,1304.8281 L613,1304.8281 C598,1304.8281 598,1361.125 583,1361.125 L573,1361.125 " fill="none" style="stroke:#181818;stroke-width:1.0;"/><path d="M815,812.2305 L805,812.2305 C790,812.2305 790,1304.8281 775,1304.8281 L765,1304.8281 " fill="none" style="stroke:#181818;stroke-width:1.0;"/><!--SRC=[fLPBQnjN5DxFhxXuPRkLNQUbbAn2sxGbs13gEAjk9lRK39L6HXgvTATNhO9Db9H2IqASE0IoAenbZINhvRzmxp_gTywPgv76SWXqeK5pxdbyvpkFkVVAeLiA2twmLt0F7ESJfSzqfAzC_QTWTJNlXoMll5QghAxY26TlTAmlTD_KJDrKTMIEyB-z3eEEgUi9H7tTis8OmE8jB8OwDaqzqMCMUGNNp_C_KuFD4PunhFiIuPL4rtsb1teCVnUc8PwkzKH14Y521q-ScQVf2NkX-FqPxIckEH-NP9sH4UukaDS9hZcX167R44odoBO95JgWl2S40FzE55vYtJCDEI8X-oE603-IB9lCp8XEIG09HHbG37bdaouPCB77OjQ6usCza1UAmxGWxml1tOLRKc_0V4mvN2SFd5md2E9RL3l4pJcL17v7-8q9aoXFILFw9TnGmh6f2HD_mUISDFZWX38HCghiSy2PzWYbPVSrZ5jCB4fdsjEg9kJeVwaxG8RmEhv5wncWTo6OP0zUpwLhjREfpUf676YGL1QciUraz9ofpIK1nIknFPrMKHAdDgU0kcVFMp8MzdoUYccm8LEH9SySP-cpnNZ1bU-IXS1PbznC0mcpG77VLDbP0lOzvuJ6b4vBny-nD0nXtx9GgMK6t1i3MxKRLK4d8XA31Rp8aihhWkAtP20IMRPDgAeqeHt8OqNO4yzNCcXw8c6V0mNc11FwWO1_M-QJ6RJTpV6I31PK3E4Zl81nk2OWFSV9vMYbyIIGFIyaF91Dp7oEe96xaSuwDsC4YcojPuk4x9xE5Oa4qo817hiyPV_dr7fKS8jG4fbWzgdBunHB96PKEohNaDUV68b6UZx7JJznMALjgTWwxVShOU1CDXUffuiSoMVcds4BPDl2SDwcpWLoT1JA1fRi2kfoe4l0wIyY6ceKHVOgJQeay2hPWTmSP0ltvdSPNDA0oZ_8ZkSw7QEP7b-dyAPbcIPEk8Cwj4_jrfxvxg1d5tfTebnfLOve69SINmiw8I64t3Ovkma-MIHgyWVg8-pqEqG__LJ91yWq56T_IGmodFO7MqPs7ygEkO9_waFKZZaTSuqNfiTxTfxe_sjUPL4DqpMyjUXBqb9qZw0MkB6eboJSdt0omu_T-Ntdbe9-p7Jn9au_nKSo4Car8GDZwcTnktFhzfEfglDy9bEUQNtQ_EJdFUj5KdgU5VD79ZcKdJ4CwVv3gvhiQDLTq4rbjk3ONR9GxEs8LL_m0f_PwEcNRhePPZ-KBBpveMJn6U7df6aw1tAjaHNE2tf4GUzvk3BQQ-F3l1k4ErkRwj0hbVrYe3RMxdnsv_ErZOqdNkXkBEy4lmJ5NmErMomS-7bFXNx1Mt6Mlt-ugSh5IcdNKtj-EIpvJoeXh5US1-wXgtwi1AHtLz7RygEj5RLztmhL_U3GBnM3WXU4peF7MwAaVYY6smV5a9M__2BtjH-gRQy4KEhnblEjzxDRoOSmtItk-S7-NRNpwBlSLywc6-nNt7q4yWBdco82b7x3sVP_]--></g></svg>