<?xml version="1.0" encoding="us-ascii" standalone="no"?><svg xmlns="http://www.w3.org/2000/svg" xmlns:xlink="http://www.w3.org/1999/xlink" contentStyleType="text/css" height="1373px" preserveAspectRatio="none" style="width:1736px;height:1373px;background:#FFFFFF;" version="1.1" viewBox="0 0 1736 1373" width="1736px" zoomAndPan="magnify"><defs/><g><rect fill="#F1F1F1" height="52.5938" rx="12.5" ry="12.5" style="stroke:#181818;stroke-width:1.5;" width="85" x="689" y="659.2656"/><text fill="#000000" font-family="sans-serif" font-size="14" lengthAdjust="spacing" textLength="36" x="699" y="682.2607">&#1057;&#1072;&#1081;&#1090;</text><text fill="#000000" font-family="sans-serif" font-size="14" font-weight="bold" lengthAdjust="spacing" textLength="65" x="699" y="698.5576">litres.ru</text><rect fill="#F1F1F1" height="36.2969" rx="12.5" ry="12.5" style="stroke:#181818;stroke-width:1.5;" width="221" x="824" y="76.2969"/><text fill="#000000" font-family="sans-serif" font-size="14" lengthAdjust="spacing" textLength="201" x="834" y="99.292">&#1056;&#1077;&#1075;&#1080;&#1089;&#1090;&#1088;&#1072;&#1094;&#1080;&#1103;/&#1072;&#1074;&#1090;&#1086;&#1088;&#1080;&#1079;&#1072;&#1094;&#1080;&#1103;</text><rect fill="#F1F1F1" height="36.2969" rx="12.5" ry="12.5" style="stroke:#181818;stroke-width:1.5;" width="87" x="1095" y="20"/><text fill="#000000" font-family="sans-serif" font-size="14" lengthAdjust="spacing" textLength="67" x="1105" y="42.9951">&#1058;&#1077;&#1083;&#1077;&#1092;&#1086;&#1085;</text><path d="M1045,94.4453 L1055,94.4453 C1070,94.4453 1070,38.1484 1085,38.1484 L1095,38.1484 " fill="none" style="stroke:#181818;stroke-width:1.0;"/><rect fill="#F1F1F1" height="36.2969" rx="12.5" ry="12.5" style="stroke:#181818;stroke-width:1.5;" width="59" x="1095" y="76.2969"/><text fill="#000000" font-family="sans-serif" font-size="14" lengthAdjust="spacing" textLength="39" x="1105" y="99.292">email</text><path d="M1045,94.4453 L1055,94.4453 C1070,94.4453 1070,94.4453 1085,94.4453 L1095,94.4453 " fill="none" style="stroke:#181818;stroke-width:1.0;"/><rect fill="#F1F1F1" height="36.2969" rx="12.5" ry="12.5" style="stroke:#181818;stroke-width:1.5;" width="82" x="1095" y="132.5938"/><text fill="#000000" font-family="sans-serif" font-size="14" lengthAdjust="spacing" textLength="62" x="1105" y="155.5889">&#1089;&#1086;&#1094;&#1089;&#1077;&#1090;&#1080;</text><path d="M1045,94.4453 L1055,94.4453 C1070,94.4453 1070,150.7422 1085,150.7422 L1095,150.7422 " fill="none" style="stroke:#181818;stroke-width:1.0;"/><path d="M774,685.5625 L784,685.5625 C799,685.5625 799,94.4453 814,94.4453 L824,94.4453 " fill="none" style="stroke:#181818;stroke-width:1.0;"/><rect fill="#F1F1F1" height="36.2969" rx="12.5" ry="12.5" style="stroke:#181818;stroke-width:1.5;" width="112" x="824" y="301.4844"/><text fill="#000000" font-family="sans-serif" font-size="14" lengthAdjust="spacing" textLength="92" x="834" y="324.4795">&#1053;&#1072;&#1081;&#1090;&#1080; &#1082;&#1085;&#1080;&#1075;&#1091;</text><rect fill="#F1F1F1" height="36.2969" rx="12.5" ry="12.5" style="stroke:#181818;stroke-width:1.5;" width="114" x="986" y="188.8906"/><text fill="#000000" font-family="sans-serif" font-size="14" lengthAdjust="spacing" textLength="94" x="996" y="211.8857">&#1087;&#1086; &#1085;&#1072;&#1079;&#1074;&#1072;&#1085;&#1080;&#1102;</text><path d="M936,319.6328 L946,319.6328 C961,319.6328 961,207.0391 976,207.0391 L986,207.0391 " fill="none" style="stroke:#181818;stroke-width:1.0;"/><rect fill="#F1F1F1" height="36.2969" rx="12.5" ry="12.5" style="stroke:#181818;stroke-width:1.5;" width="87" x="986" y="245.1875"/><text fill="#000000" font-family="sans-serif" font-size="14" lengthAdjust="spacing" textLength="67" x="996" y="268.1826">&#1087;&#1086; &#1089;&#1077;&#1088;&#1080;&#1080;</text><path d="M936,319.6328 L946,319.6328 C961,319.6328 961,263.3359 976,263.3359 L986,263.3359 " fill="none" style="stroke:#181818;stroke-width:1.0;"/><rect fill="#F1F1F1" height="36.2969" rx="12.5" ry="12.5" style="stroke:#181818;stroke-width:1.5;" width="95" x="986" y="301.4844"/><text fill="#000000" font-family="sans-serif" font-size="14" lengthAdjust="spacing" textLength="75" x="996" y="324.4795">&#1087;&#1086; &#1072;&#1074;&#1090;&#1086;&#1088;&#1091;</text><path d="M936,319.6328 L946,319.6328 C961,319.6328 961,319.6328 976,319.6328 L986,319.6328 " fill="none" style="stroke:#181818;stroke-width:1.0;"/><rect fill="#F1F1F1" height="36.2969" rx="12.5" ry="12.5" style="stroke:#181818;stroke-width:1.5;" width="90" x="986" y="357.7813"/><text fill="#000000" font-family="sans-serif" font-size="14" lengthAdjust="spacing" textLength="70" x="996" y="380.7764">&#1087;&#1086; &#1078;&#1072;&#1085;&#1088;&#1091;</text><path d="M936,319.6328 L946,319.6328 C961,319.6328 961,375.9297 976,375.9297 L986,375.9297 " fill="none" style="stroke:#181818;stroke-width:1.0;"/><rect fill="#F1F1F1" height="36.2969" rx="12.5" ry="12.5" style="stroke:#181818;stroke-width:1.5;" width="147" x="986" y="414.0781"/><text fill="#000000" font-family="sans-serif" font-size="14" lengthAdjust="spacing" textLength="127" x="996" y="437.0732">&#1087;&#1086; &#1080;&#1079;&#1076;&#1072;&#1090;&#1077;&#1083;&#1100;&#1089;&#1090;&#1074;&#1091;</text><path d="M936,319.6328 L946,319.6328 C961,319.6328 961,432.2266 976,432.2266 L986,432.2266 " fill="none" style="stroke:#181818;stroke-width:1.0;"/><path d="M774,685.5625 L784,685.5625 C799,685.5625 799,319.6328 814,319.6328 L824,319.6328 " fill="none" style="stroke:#181818;stroke-width:1.0;"/><rect fill="#F1F1F1" height="36.2969" rx="12.5" ry="12.5" style="stroke:#181818;stroke-width:1.5;" width="282" x="824" y="625.1914"/><text fill="#000000" font-family="sans-serif" font-size="14" lengthAdjust="spacing" textLength="262" x="834" y="648.1865">&#1054;&#1090;&#1092;&#1080;&#1083;&#1100;&#1090;&#1088;&#1086;&#1074;&#1072;&#1090;&#1100; &#1088;&#1077;&#1079;&#1091;&#1083;&#1100;&#1090;&#1072;&#1090; &#1087;&#1086;&#1080;&#1089;&#1082;&#1072;</text><rect fill="#F1F1F1" height="36.2969" rx="12.5" ry="12.5" style="stroke:#181818;stroke-width:1.5;" width="80" x="1156" y="498.5234"/><text fill="#000000" font-family="sans-serif" font-size="14" lengthAdjust="spacing" textLength="60" x="1166" y="521.5186">&#1092;&#1086;&#1088;&#1084;&#1072;&#1090;</text><rect fill="#F1F1F1" height="36.2969" rx="12.5" ry="12.5" style="stroke:#181818;stroke-width:1.5;" width="64" x="1286" y="470.375"/><text fill="#000000" font-family="sans-serif" font-size="14" lengthAdjust="spacing" textLength="44" x="1296" y="493.3701">&#1090;&#1077;&#1082;&#1089;&#1090;</text><path d="M1236,516.6719 L1246,516.6719 C1261,516.6719 1261,488.5234 1276,488.5234 L1286,488.5234 " fill="none" style="stroke:#181818;stroke-width:1.0;"/><rect fill="#F1F1F1" height="36.2969" rx="12.5" ry="12.5" style="stroke:#181818;stroke-width:1.5;" width="93" x="1286" y="526.6719"/><text fill="#000000" font-family="sans-serif" font-size="14" lengthAdjust="spacing" textLength="73" x="1296" y="549.667">&#1087;&#1086;&#1076;&#1082;&#1072;&#1089;&#1090;&#1099;</text><path d="M1236,516.6719 L1246,516.6719 C1261,516.6719 1261,544.8203 1276,544.8203 L1286,544.8203 " fill="none" style="stroke:#181818;stroke-width:1.0;"/><path d="M1106,643.3398 L1116,643.3398 C1131,643.3398 1131,516.6719 1146,516.6719 L1156,516.6719 " fill="none" style="stroke:#181818;stroke-width:1.0;"/><rect fill="#F1F1F1" height="36.2969" rx="12.5" ry="12.5" style="stroke:#181818;stroke-width:1.5;" width="57" x="1156" y="554.8203"/><text fill="#000000" font-family="sans-serif" font-size="14" lengthAdjust="spacing" textLength="37" x="1166" y="577.8154">&#1103;&#1079;&#1099;&#1082;</text><path d="M1106,643.3398 L1116,643.3398 C1131,643.3398 1131,572.9688 1146,572.9688 L1156,572.9688 " fill="none" style="stroke:#181818;stroke-width:1.0;"/><rect fill="#F1F1F1" height="36.2969" rx="12.5" ry="12.5" style="stroke:#181818;stroke-width:1.5;" width="83" x="1156" y="611.1172"/><text fill="#000000" font-family="sans-serif" font-size="14" lengthAdjust="spacing" textLength="63" x="1166" y="634.1123">&#1088;&#1077;&#1081;&#1090;&#1080;&#1085;&#1075;</text><path d="M1106,643.3398 L1116,643.3398 C1131,643.3398 1131,629.2656 1146,629.2656 L1156,629.2656 " fill="none" style="stroke:#181818;stroke-width:1.0;"/><rect fill="#F1F1F1" height="36.2969" rx="12.5" ry="12.5" style="stroke:#181818;stroke-width:1.5;" width="189" x="1156" y="667.4141"/><text fill="#000000" font-family="sans-serif" font-size="14" lengthAdjust="spacing" textLength="169" x="1166" y="690.4092">&#1076;&#1086;&#1089;&#1090;&#1091;&#1087;&#1085;&#1086; &#1087;&#1086; &#1087;&#1086;&#1076;&#1087;&#1080;&#1089;&#1082;&#1077;</text><path d="M1106,643.3398 L1116,643.3398 C1131,643.3398 1131,685.5625 1146,685.5625 L1156,685.5625 " fill="none" style="stroke:#181818;stroke-width:1.0;"/><rect fill="#F1F1F1" height="36.2969" rx="12.5" ry="12.5" style="stroke:#181818;stroke-width:1.5;" width="199" x="1156" y="723.7109"/><text fill="#000000" font-family="sans-serif" font-size="14" lengthAdjust="spacing" textLength="179" x="1166" y="746.7061">&#1076;&#1086;&#1089;&#1090;&#1091;&#1087;&#1085;&#1086; &#1074; &#1072;&#1073;&#1086;&#1085;&#1077;&#1084;&#1077;&#1085;&#1090;&#1077;</text><path d="M1106,643.3398 L1116,643.3398 C1131,643.3398 1131,741.8594 1146,741.8594 L1156,741.8594 " fill="none" style="stroke:#181818;stroke-width:1.0;"/><rect fill="#F1F1F1" height="36.2969" rx="12.5" ry="12.5" style="stroke:#181818;stroke-width:1.5;" width="124" x="1156" y="780.0078"/><text fill="#000000" font-family="sans-serif" font-size="14" lengthAdjust="spacing" textLength="104" x="1166" y="803.0029">&#1072;&#1074;&#1090;&#1086;&#1088; &#1051;&#1080;&#1090;&#1088;&#1077;&#1089;</text><path d="M1106,643.3398 L1116,643.3398 C1131,643.3398 1131,798.1563 1146,798.1563 L1156,798.1563 " fill="none" style="stroke:#181818;stroke-width:1.0;"/><path d="M774,685.5625 L784,685.5625 C799,685.5625 799,643.3398 814,643.3398 L824,643.3398 " fill="none" style="stroke:#181818;stroke-width:1.0;"/><rect fill="#F1F1F1" height="36.2969" rx="12.5" ry="12.5" style="stroke:#181818;stroke-width:1.5;" width="160" x="824" y="1075.5664"/><text fill="#000000" font-family="sans-serif" font-size="14" lengthAdjust="spacing" textLength="140" x="834" y="1098.5615">&#1056;&#1072;&#1073;&#1086;&#1090;&#1072; &#1089; &#1082;&#1086;&#1088;&#1079;&#1080;&#1085;&#1086;&#1081;</text><rect fill="#F1F1F1" height="36.2969" rx="12.5" ry="12.5" style="stroke:#181818;stroke-width:1.5;" width="221" x="1034" y="864.4531"/><text fill="#000000" font-family="sans-serif" font-size="14" lengthAdjust="spacing" textLength="201" x="1044" y="887.4482">&#1044;&#1086;&#1073;&#1072;&#1074;&#1080;&#1090;&#1100; &#1090;&#1086;&#1074;&#1072;&#1088; &#1074; &#1082;&#1086;&#1088;&#1079;&#1080;&#1085;&#1091;</text><rect fill="#F1F1F1" height="36.2969" rx="12.5" ry="12.5" style="stroke:#181818;stroke-width:1.5;" width="159" x="1305" y="836.3047"/><text fill="#000000" font-family="sans-serif" font-size="14" lengthAdjust="spacing" textLength="139" x="1315" y="859.2998">&#1055;&#1077;&#1095;&#1072;&#1090;&#1085;&#1099;&#1081; &#1074;&#1072;&#1088;&#1080;&#1072;&#1085;&#1090;</text><path d="M1255,882.6016 L1265,882.6016 C1280,882.6016 1280,854.4531 1295,854.4531 L1305,854.4531 " fill="none" style="stroke:#181818;stroke-width:1.0;"/><rect fill="#F1F1F1" height="36.2969" rx="12.5" ry="12.5" style="stroke:#181818;stroke-width:1.5;" width="189" x="1305" y="892.6016"/><text fill="#000000" font-family="sans-serif" font-size="14" lengthAdjust="spacing" textLength="169" x="1315" y="915.5967">&#1069;&#1083;&#1077;&#1082;&#1090;&#1088;&#1086;&#1085;&#1085;&#1099;&#1081; &#1074;&#1072;&#1088;&#1080;&#1072;&#1085;&#1090;</text><path d="M1255,882.6016 L1265,882.6016 C1280,882.6016 1280,910.75 1295,910.75 L1305,910.75 " fill="none" style="stroke:#181818;stroke-width:1.0;"/><path d="M984,1093.7148 L994,1093.7148 C1009,1093.7148 1009,882.6016 1024,882.6016 L1034,882.6016 " fill="none" style="stroke:#181818;stroke-width:1.0;"/><rect fill="#F1F1F1" height="36.2969" rx="12.5" ry="12.5" style="stroke:#181818;stroke-width:1.5;" width="299" x="1034" y="948.8984"/><text fill="#000000" font-family="sans-serif" font-size="14" lengthAdjust="spacing" textLength="279" x="1044" y="971.8936">&#1054;&#1095;&#1080;&#1089;&#1090;&#1080;&#1090;&#1100;/&#1086;&#1090;&#1088;&#1077;&#1076;&#1072;&#1082;&#1090;&#1080;&#1088;&#1086;&#1074;&#1072;&#1090;&#1100; &#1082;&#1086;&#1088;&#1079;&#1080;&#1085;&#1091;</text><path d="M984,1093.7148 L994,1093.7148 C1009,1093.7148 1009,967.0469 1024,967.0469 L1034,967.0469 " fill="none" style="stroke:#181818;stroke-width:1.0;"/><rect fill="#F1F1F1" height="36.2969" rx="12.5" ry="12.5" style="stroke:#181818;stroke-width:1.5;" width="146" x="1034" y="1005.1953"/><text fill="#000000" font-family="sans-serif" font-size="14" lengthAdjust="spacing" textLength="126" x="1044" y="1028.1904">&#1054;&#1092;&#1086;&#1088;&#1084;&#1080;&#1090;&#1100; &#1079;&#1072;&#1082;&#1072;&#1079;</text><path d="M984,1093.7148 L994,1093.7148 C1009,1093.7148 1009,1023.3438 1024,1023.3438 L1034,1023.3438 " fill="none" style="stroke:#181818;stroke-width:1.0;"/><rect fill="#F1F1F1" height="36.2969" rx="12.5" ry="12.5" style="stroke:#181818;stroke-width:1.5;" width="233" x="1034" y="1061.4922"/><text fill="#000000" font-family="sans-serif" font-size="14" lengthAdjust="spacing" textLength="213" x="1044" y="1084.4873">&#1054;&#1087;&#1083;&#1072;&#1090;&#1080;&#1090;&#1100; &#1090;&#1086;&#1074;&#1072;&#1088;&#1099; &#1074; &#1082;&#1086;&#1088;&#1079;&#1080;&#1085;&#1077;</text><rect fill="#F1F1F1" height="36.2969" rx="12.5" ry="12.5" style="stroke:#181818;stroke-width:1.5;" width="237" x="1317" y="1033.3438"/><text fill="#000000" font-family="sans-serif" font-size="14" lengthAdjust="spacing" textLength="217" x="1327" y="1056.3389">&#1050;&#1088;&#1077;&#1076;&#1080;&#1090;&#1085;&#1086;&#1081;/&#1073;&#1086;&#1085;&#1091;&#1089;&#1085;&#1086;&#1081; &#1082;&#1072;&#1088;&#1090;&#1086;&#1081;</text><path d="M1267,1079.6406 L1277,1079.6406 C1292,1079.6406 1292,1051.4922 1307,1051.4922 L1317,1051.4922 " fill="none" style="stroke:#181818;stroke-width:1.0;"/><rect fill="#F1F1F1" height="36.2969" rx="12.5" ry="12.5" style="stroke:#181818;stroke-width:1.5;" width="136" x="1317" y="1089.6406"/><text fill="#000000" font-family="sans-serif" font-size="14" lengthAdjust="spacing" textLength="116" x="1327" y="1112.6357">&#1063;&#1077;&#1088;&#1077;&#1079; &#1090;&#1077;&#1083;&#1077;&#1092;&#1086;&#1085;</text><path d="M1267,1079.6406 L1277,1079.6406 C1292,1079.6406 1292,1107.7891 1307,1107.7891 L1317,1107.7891 " fill="none" style="stroke:#181818;stroke-width:1.0;"/><path d="M984,1093.7148 L994,1093.7148 C1009,1093.7148 1009,1079.6406 1024,1079.6406 L1034,1079.6406 " fill="none" style="stroke:#181818;stroke-width:1.0;"/><rect fill="#F1F1F1" height="36.2969" rx="12.5" ry="12.5" style="stroke:#181818;stroke-width:1.5;" width="156" x="1034" y="1230.3828"/><text fill="#000000" font-family="sans-serif" font-size="14" lengthAdjust="spacing" textLength="136" x="1044" y="1253.3779">&#1055;&#1086;&#1083;&#1091;&#1095;&#1080;&#1090;&#1100; &#1087;&#1086;&#1082;&#1091;&#1087;&#1082;&#1091;</text><rect fill="#F1F1F1" height="36.2969" rx="12.5" ry="12.5" style="stroke:#181818;stroke-width:1.5;" width="189" x="1240" y="1174.0859"/><text fill="#000000" font-family="sans-serif" font-size="14" lengthAdjust="spacing" textLength="169" x="1250" y="1197.0811">&#1069;&#1083;&#1077;&#1082;&#1090;&#1088;&#1086;&#1085;&#1085;&#1099;&#1081; &#1074;&#1072;&#1088;&#1080;&#1072;&#1085;&#1090;</text><rect fill="#F1F1F1" height="36.2969" rx="12.5" ry="12.5" style="stroke:#181818;stroke-width:1.5;" width="81" x="1479" y="1145.9375"/><text fill="#000000" font-family="sans-serif" font-size="14" lengthAdjust="spacing" textLength="61" x="1489" y="1168.9326">&#1057;&#1082;&#1072;&#1095;&#1072;&#1090;&#1100;</text><path d="M1429,1192.2344 L1439,1192.2344 C1454,1192.2344 1454,1164.0859 1469,1164.0859 L1479,1164.0859 " fill="none" style="stroke:#181818;stroke-width:1.0;"/><rect fill="#F1F1F1" height="36.2969" rx="12.5" ry="12.5" style="stroke:#181818;stroke-width:1.5;" width="245" x="1479" y="1202.2344"/><text fill="#000000" font-family="sans-serif" font-size="14" lengthAdjust="spacing" textLength="225" x="1489" y="1225.2295">&#1044;&#1086;&#1073;&#1072;&#1074;&#1080;&#1090;&#1100; &#1085;&#1072; &#1089;&#1074;&#1086;&#1077; &#1091;&#1089;&#1090;&#1088;&#1086;&#1081;&#1089;&#1090;&#1074;&#1086;</text><path d="M1429,1192.2344 L1439,1192.2344 C1454,1192.2344 1454,1220.3828 1469,1220.3828 L1479,1220.3828 " fill="none" style="stroke:#181818;stroke-width:1.0;"/><path d="M1190,1248.5313 L1200,1248.5313 C1215,1248.5313 1215,1192.2344 1230,1192.2344 L1240,1192.2344 " fill="none" style="stroke:#181818;stroke-width:1.0;"/><rect fill="#F1F1F1" height="36.2969" rx="12.5" ry="12.5" style="stroke:#181818;stroke-width:1.5;" width="165" x="1240" y="1286.6797"/><text fill="#000000" font-family="sans-serif" font-size="14" lengthAdjust="spacing" textLength="145" x="1250" y="1309.6748">&#1041;&#1091;&#1084;&#1072;&#1078;&#1085;&#1099;&#1081; &#1074;&#1072;&#1088;&#1080;&#1072;&#1085;&#1090;</text><rect fill="#F1F1F1" height="36.2969" rx="12.5" ry="12.5" style="stroke:#181818;stroke-width:1.5;" width="162" x="1455" y="1258.5313"/><text fill="#000000" font-family="sans-serif" font-size="14" lengthAdjust="spacing" textLength="142" x="1465" y="1281.5264">&#1047;&#1072;&#1082;&#1072;&#1079;&#1072;&#1090;&#1100; &#1076;&#1086;&#1089;&#1090;&#1072;&#1074;&#1082;&#1091;</text><path d="M1405,1304.8281 L1415,1304.8281 C1430,1304.8281 1430,1276.6797 1445,1276.6797 L1455,1276.6797 " fill="none" style="stroke:#181818;stroke-width:1.0;"/><rect fill="#F1F1F1" height="36.2969" rx="12.5" ry="12.5" style="stroke:#181818;stroke-width:1.5;" width="187" x="1455" y="1314.8281"/><text fill="#000000" font-family="sans-serif" font-size="14" lengthAdjust="spacing" textLength="167" x="1465" y="1337.8232">&#1054;&#1092;&#1086;&#1088;&#1084;&#1080;&#1090;&#1100; &#1089;&#1072;&#1084;&#1086;&#1074;&#1099;&#1074;&#1086;&#1079;</text><path d="M1405,1304.8281 L1415,1304.8281 C1430,1304.8281 1430,1332.9766 1445,1332.9766 L1455,1332.9766 " fill="none" style="stroke:#181818;stroke-width:1.0;"/><path d="M1190,1248.5313 L1200,1248.5313 C1215,1248.5313 1215,1304.8281 1230,1304.8281 L1240,1304.8281 " fill="none" style="stroke:#181818;stroke-width:1.0;"/><path d="M984,1093.7148 L994,1093.7148 C1009,1093.7148 1009,1248.5313 1024,1248.5313 L1034,1248.5313 " fill="none" style="stroke:#181818;stroke-width:1.0;"/><path d="M774,685.5625 L784,685.5625 C799,685.5625 799,1093.7148 814,1093.7148 L824,1093.7148 " fill="none" style="stroke:#181818;stroke-width:1.0;"/><rect fill="#F1F1F1" height="36.2969" rx="12.5" ry="12.5" style="stroke:#181818;stroke-width:1.5;" width="151" x="488" y="217.0391"/><text fill="#000000" font-family="sans-serif" font-size="14" lengthAdjust="spacing" textLength="131" x="498" y="240.0342">&#1056;&#1072;&#1073;&#1086;&#1090;&#1072; &#1089;&#1086; &#1089;&#1095;&#1077;&#1090;&#1086;&#1084;</text><rect fill="#F1F1F1" height="36.2969" rx="12.5" ry="12.5" style="stroke:#181818;stroke-width:1.5;" width="374" x="64" y="132.5938"/><text fill="#000000" font-family="sans-serif" font-size="14" lengthAdjust="spacing" textLength="354" x="74" y="155.5889">&#1044;&#1086;&#1073;&#1072;&#1074;&#1080;&#1090;&#1100;/&#1091;&#1076;&#1072;&#1083;&#1080;&#1090;&#1100; &#1082;&#1088;&#1077;&#1076;&#1080;&#1090;&#1085;&#1091;&#1102;/&#1073;&#1086;&#1085;&#1091;&#1089;&#1085;&#1091;&#1102; &#1082;&#1072;&#1088;&#1090;&#1091;</text><path d="M488,235.1875 L478,235.1875 C463,235.1875 463,150.7422 448,150.7422 L438,150.7422 " fill="none" style="stroke:#181818;stroke-width:1.0;"/><rect fill="#F1F1F1" height="36.2969" rx="12.5" ry="12.5" style="stroke:#181818;stroke-width:1.5;" width="240" x="198" y="188.8906"/><text fill="#000000" font-family="sans-serif" font-size="14" lengthAdjust="spacing" textLength="220" x="208" y="211.8857">&#1054;&#1090;&#1086;&#1073;&#1088;&#1072;&#1079;&#1080;&#1090;&#1100; &#1089;&#1086;&#1089;&#1090;&#1086;&#1103;&#1085;&#1080;&#1077; &#1089;&#1095;&#1077;&#1090;&#1072;</text><path d="M488,235.1875 L478,235.1875 C463,235.1875 463,207.0391 448,207.0391 L438,207.0391 " fill="none" style="stroke:#181818;stroke-width:1.0;"/><rect fill="#F1F1F1" height="36.2969" rx="12.5" ry="12.5" style="stroke:#181818;stroke-width:1.5;" width="140" x="298" y="245.1875"/><text fill="#000000" font-family="sans-serif" font-size="14" lengthAdjust="spacing" textLength="120" x="308" y="268.1826">&#1055;&#1086;&#1087;&#1086;&#1083;&#1085;&#1080;&#1090;&#1100; &#1089;&#1095;&#1077;&#1090;</text><path d="M488,235.1875 L478,235.1875 C463,235.1875 463,263.3359 448,263.3359 L438,263.3359 " fill="none" style="stroke:#181818;stroke-width:1.0;"/><rect fill="#F1F1F1" height="36.2969" rx="12.5" ry="12.5" style="stroke:#181818;stroke-width:1.5;" width="237" x="201" y="301.4844"/><text fill="#000000" font-family="sans-serif" font-size="14" lengthAdjust="spacing" textLength="217" x="211" y="324.4795">&#1055;&#1086;&#1082;&#1072;&#1079;&#1072;&#1090;&#1100; &#1080;&#1089;&#1090;&#1086;&#1088;&#1080;&#1102; &#1086;&#1087;&#1077;&#1088;&#1072;&#1094;&#1080;&#1081;</text><path d="M488,235.1875 L478,235.1875 C463,235.1875 463,319.6328 448,319.6328 L438,319.6328 " fill="none" style="stroke:#181818;stroke-width:1.0;"/><path d="M689,685.5625 L679,685.5625 C664,685.5625 664,235.1875 649,235.1875 L639,235.1875 " fill="none" style="stroke:#181818;stroke-width:1.0;"/><rect fill="#F1F1F1" height="36.2969" rx="12.5" ry="12.5" style="stroke:#181818;stroke-width:1.5;" width="193" x="446" y="357.7813"/><text fill="#000000" font-family="sans-serif" font-size="14" lengthAdjust="spacing" textLength="173" x="456" y="380.7764">&#1057;&#1090;&#1072;&#1090;&#1100; &#1072;&#1074;&#1090;&#1086;&#1088;&#1086;&#1084; &#1051;&#1080;&#1090;&#1088;&#1077;&#1089;</text><path d="M689,685.5625 L679,685.5625 C664,685.5625 664,375.9297 649,375.9297 L639,375.9297 " fill="none" style="stroke:#181818;stroke-width:1.0;"/><rect fill="#F1F1F1" height="36.2969" rx="12.5" ry="12.5" style="stroke:#181818;stroke-width:1.5;" width="275" x="364" y="414.0781"/><text fill="#000000" font-family="sans-serif" font-size="14" lengthAdjust="spacing" textLength="255" x="374" y="437.0732">&#1054;&#1073;&#1088;&#1072;&#1090;&#1080;&#1090;&#1100;&#1089;&#1103; &#1074; &#1089;&#1083;&#1091;&#1078;&#1073;&#1091; &#1087;&#1086;&#1076;&#1076;&#1077;&#1088;&#1078;&#1082;&#1080;</text><path d="M689,685.5625 L679,685.5625 C664,685.5625 664,432.2266 649,432.2266 L639,432.2266 " fill="none" style="stroke:#181818;stroke-width:1.0;"/><rect fill="#F1F1F1" height="36.2969" rx="12.5" ry="12.5" style="stroke:#181818;stroke-width:1.5;" width="167" x="472" y="582.9688"/><text fill="#000000" font-family="sans-serif" font-size="14" lengthAdjust="spacing" textLength="147" x="482" y="605.9639">&#1056;&#1072;&#1073;&#1086;&#1090;&#1072; &#1089; &#1087;&#1088;&#1086;&#1092;&#1080;&#1083;&#1077;&#1084;</text><rect fill="#F1F1F1" height="36.2969" rx="12.5" ry="12.5" style="stroke:#181818;stroke-width:1.5;" width="149" x="273" y="498.5234"/><text fill="#000000" font-family="sans-serif" font-size="14" lengthAdjust="spacing" textLength="129" x="283" y="521.5186">&#1053;&#1072;&#1089;&#1090;&#1088;&#1086;&#1081;&#1082;&#1080; &#1074;&#1093;&#1086;&#1076;&#1072;</text><rect fill="#F1F1F1" height="36.2969" rx="12.5" ry="12.5" style="stroke:#181818;stroke-width:1.5;" width="213" x="10" y="470.375"/><text fill="#000000" font-family="sans-serif" font-size="14" lengthAdjust="spacing" textLength="193" x="20" y="493.3701">&#1048;&#1079;&#1084;&#1077;&#1085;&#1080;&#1090;&#1100; &#1090;&#1077;&#1083;&#1077;&#1092;&#1086;&#1085;/&#1087;&#1086;&#1095;&#1090;&#1091;</text><path d="M273,516.6719 L263,516.6719 C248,516.6719 248,488.5234 233,488.5234 L223,488.5234 " fill="none" style="stroke:#181818;stroke-width:1.0;"/><rect fill="#F1F1F1" height="36.2969" rx="12.5" ry="12.5" style="stroke:#181818;stroke-width:1.5;" width="167" x="56" y="526.6719"/><text fill="#000000" font-family="sans-serif" font-size="14" lengthAdjust="spacing" textLength="147" x="66" y="549.667">&#1055;&#1088;&#1080;&#1074;&#1103;&#1079;&#1072;&#1090;&#1100; &#1089;&#1086;&#1094;&#1089;&#1077;&#1090;&#1100;</text><path d="M273,516.6719 L263,516.6719 C248,516.6719 248,544.8203 233,544.8203 L223,544.8203 " fill="none" style="stroke:#181818;stroke-width:1.0;"/><path d="M472,601.1172 L462,601.1172 C447,601.1172 447,516.6719 432,516.6719 L422,516.6719 " fill="none" style="stroke:#181818;stroke-width:1.0;"/><rect fill="#F1F1F1" height="36.2969" rx="12.5" ry="12.5" style="stroke:#181818;stroke-width:1.5;" width="257" x="165" y="582.9688"/><text fill="#000000" font-family="sans-serif" font-size="14" lengthAdjust="spacing" textLength="237" x="175" y="605.9639">&#1048;&#1079;&#1084;&#1077;&#1085;&#1080;&#1090;&#1100; &#1083;&#1080;&#1095;&#1085;&#1091;&#1102; &#1080;&#1085;&#1092;&#1086;&#1088;&#1084;&#1072;&#1094;&#1080;&#1102;</text><path d="M472,601.1172 L462,601.1172 C447,601.1172 447,601.1172 432,601.1172 L422,601.1172 " fill="none" style="stroke:#181818;stroke-width:1.0;"/><rect fill="#F1F1F1" height="36.2969" rx="12.5" ry="12.5" style="stroke:#181818;stroke-width:1.5;" width="209" x="213" y="639.2656"/><text fill="#000000" font-family="sans-serif" font-size="14" lengthAdjust="spacing" textLength="189" x="223" y="662.2607">&#1056;&#1072;&#1073;&#1086;&#1090;&#1072; &#1089; &#1091;&#1074;&#1077;&#1076;&#1086;&#1084;&#1083;&#1077;&#1085;&#1080;&#1103;&#1084;&#1080;</text><path d="M472,601.1172 L462,601.1172 C447,601.1172 447,657.4141 432,657.4141 L422,657.4141 " fill="none" style="stroke:#181818;stroke-width:1.0;"/><rect fill="#F1F1F1" height="36.2969" rx="12.5" ry="12.5" style="stroke:#181818;stroke-width:1.5;" width="169" x="253" y="695.5625"/><text fill="#000000" font-family="sans-serif" font-size="14" lengthAdjust="spacing" textLength="149" x="263" y="718.5576">&#1056;&#1072;&#1073;&#1086;&#1090;&#1072; &#1089; &#1088;&#1072;&#1089;&#1089;&#1099;&#1083;&#1082;&#1086;&#1081;</text><path d="M472,601.1172 L462,601.1172 C447,601.1172 447,713.7109 432,713.7109 L422,713.7109 " fill="none" style="stroke:#181818;stroke-width:1.0;"/><path d="M689,685.5625 L679,685.5625 C664,685.5625 664,601.1172 649,601.1172 L639,601.1172 " fill="none" style="stroke:#181818;stroke-width:1.0;"/><rect fill="#F1F1F1" height="36.2969" rx="12.5" ry="12.5" style="stroke:#181818;stroke-width:1.5;" width="190" x="449" y="836.3047"/><text fill="#000000" font-family="sans-serif" font-size="14" lengthAdjust="spacing" textLength="170" x="459" y="859.2998">&#1056;&#1072;&#1073;&#1086;&#1090;&#1072; &#1089; &#1072;&#1073;&#1086;&#1085;&#1077;&#1084;&#1077;&#1085;&#1090;&#1086;&#1084;</text><rect fill="#F1F1F1" height="36.2969" rx="12.5" ry="12.5" style="stroke:#181818;stroke-width:1.5;" width="133" x="266" y="751.8594"/><text fill="#000000" font-family="sans-serif" font-size="14" lengthAdjust="spacing" textLength="113" x="276" y="774.8545">&#1042;&#1099;&#1073;&#1088;&#1072;&#1090;&#1100; &#1082;&#1085;&#1080;&#1075;&#1091;</text><path d="M449,854.4531 L439,854.4531 C424,854.4531 424,770.0078 409,770.0078 L399,770.0078 " fill="none" style="stroke:#181818;stroke-width:1.0;"/><rect fill="#F1F1F1" height="36.2969" rx="12.5" ry="12.5" style="stroke:#181818;stroke-width:1.5;" width="149" x="250" y="808.1563"/><text fill="#000000" font-family="sans-serif" font-size="14" lengthAdjust="spacing" textLength="129" x="260" y="831.1514">&#1055;&#1088;&#1080;&#1074;&#1103;&#1079;&#1072;&#1090;&#1100; &#1082;&#1072;&#1088;&#1090;&#1091;</text><path d="M449,854.4531 L439,854.4531 C424,854.4531 424,826.3047 409,826.3047 L399,826.3047 " fill="none" style="stroke:#181818;stroke-width:1.0;"/><rect fill="#F1F1F1" height="36.2969" rx="12.5" ry="12.5" style="stroke:#181818;stroke-width:1.5;" width="331" x="68" y="864.4531"/><text fill="#000000" font-family="sans-serif" font-size="14" lengthAdjust="spacing" textLength="311" x="78" y="887.4482">&#1054;&#1090;&#1086;&#1073;&#1088;&#1072;&#1079;&#1080;&#1090;&#1100; &#1080;&#1085;&#1092;&#1086;&#1088;&#1084;&#1072;&#1094;&#1080;&#1102; &#1087;&#1086; &#1072;&#1073;&#1086;&#1085;&#1077;&#1084;&#1077;&#1085;&#1090;&#1091;</text><path d="M449,854.4531 L439,854.4531 C424,854.4531 424,882.6016 409,882.6016 L399,882.6016 " fill="none" style="stroke:#181818;stroke-width:1.0;"/><rect fill="#F1F1F1" height="36.2969" rx="12.5" ry="12.5" style="stroke:#181818;stroke-width:1.5;" width="331" x="68" y="920.75"/><text fill="#000000" font-family="sans-serif" font-size="14" lengthAdjust="spacing" textLength="311" x="78" y="943.7451">&#1054;&#1073;&#1088;&#1072;&#1090;&#1080;&#1090;&#1100;&#1089;&#1103; &#1074; &#1087;&#1088;&#1080;&#1086;&#1088;&#1080;&#1090;&#1077;&#1090;&#1085;&#1091;&#1102; &#1087;&#1086;&#1076;&#1076;&#1077;&#1088;&#1078;&#1082;&#1091;</text><path d="M449,854.4531 L439,854.4531 C424,854.4531 424,938.8984 409,938.8984 L399,938.8984 " fill="none" style="stroke:#181818;stroke-width:1.0;"/><path d="M689,685.5625 L679,685.5625 C664,685.5625 664,854.4531 649,854.4531 L639,854.4531 " fill="none" style="stroke:#181818;stroke-width:1.0;"/><rect fill="#F1F1F1" height="36.2969" rx="12.5" ry="12.5" style="stroke:#181818;stroke-width:1.5;" width="245" x="394" y="977.0469"/><text fill="#000000" font-family="sans-serif" font-size="14" lengthAdjust="spacing" textLength="225" x="404" y="1000.042">&#1063;&#1080;&#1090;&#1072;&#1090;&#1100;/&#1089;&#1083;&#1091;&#1096;&#1072;&#1090;&#1100; &#1082;&#1085;&#1080;&#1075;&#1091; &#1086;&#1085;&#1083;&#1072;&#1081;&#1085;</text><path d="M689,685.5625 L679,685.5625 C664,685.5625 664,995.1953 649,995.1953 L639,995.1953 " fill="none" style="stroke:#181818;stroke-width:1.0;"/><rect fill="#F1F1F1" height="36.2969" rx="12.5" ry="12.5" style="stroke:#181818;stroke-width:1.5;" width="187" x="452" y="1033.3438"/><text fill="#000000" font-family="sans-serif" font-size="14" lengthAdjust="spacing" textLength="167" x="462" y="1056.3389">&#1047;&#1072;&#1075;&#1088;&#1091;&#1079;&#1080;&#1090;&#1100; &#1089;&#1074;&#1086;&#1102; &#1082;&#1085;&#1080;&#1075;&#1091;</text><path d="M689,685.5625 L679,685.5625 C664,685.5625 664,1051.4922 649,1051.4922 L639,1051.4922 " fill="none" style="stroke:#181818;stroke-width:1.0;"/><rect fill="#F1F1F1" height="36.2969" rx="12.5" ry="12.5" style="stroke:#181818;stroke-width:1.5;" width="142" x="497" y="1145.9375"/><text fill="#000000" font-family="sans-serif" font-size="14" lengthAdjust="spacing" textLength="122" x="507" y="1168.9326">&#1050;&#1091;&#1087;&#1080;&#1090;&#1100; &#1087;&#1086;&#1076;&#1072;&#1088;&#1086;&#1082;</text><rect fill="#F1F1F1" height="36.2969" rx="12.5" ry="12.5" style="stroke:#181818;stroke-width:1.5;" width="92" x="355" y="1089.6406"/><text fill="#000000" font-family="sans-serif" font-size="14" lengthAdjust="spacing" textLength="72" x="365" y="1112.6357">&#1055;&#1086;&#1076;&#1087;&#1080;&#1089;&#1082;&#1072;</text><path d="M497,1164.0859 L487,1164.0859 C472,1164.0859 472,1107.7891 457,1107.7891 L447,1107.7891 " fill="none" style="stroke:#181818;stroke-width:1.0;"/><rect fill="#F1F1F1" height="36.2969" rx="12.5" ry="12.5" style="stroke:#181818;stroke-width:1.5;" width="104" x="343" y="1145.9375"/><text fill="#000000" font-family="sans-serif" font-size="14" lengthAdjust="spacing" textLength="84" x="353" y="1168.9326">&#1040;&#1073;&#1086;&#1085;&#1077;&#1084;&#1077;&#1085;&#1090;</text><path d="M497,1164.0859 L487,1164.0859 C472,1164.0859 472,1164.0859 457,1164.0859 L447,1164.0859 " fill="none" style="stroke:#181818;stroke-width:1.0;"/><rect fill="#F1F1F1" height="36.2969" rx="12.5" ry="12.5" style="stroke:#181818;stroke-width:1.5;" width="186" x="261" y="1202.2344"/><text fill="#000000" font-family="sans-serif" font-size="14" lengthAdjust="spacing" textLength="166" x="271" y="1225.2295">&#1057;&#1077;&#1088;&#1090;&#1080;&#1092;&#1080;&#1082;&#1072;&#1090; &#1085;&#1072; &#1089;&#1091;&#1084;&#1084;&#1091;</text><path d="M497,1164.0859 L487,1164.0859 C472,1164.0859 472,1220.3828 457,1220.3828 L447,1220.3828 " fill="none" style="stroke:#181818;stroke-width:1.0;"/><path d="M689,685.5625 L679,685.5625 C664,685.5625 664,1164.0859 649,1164.0859 L639,1164.0859 " fill="none" style="stroke:#181818;stroke-width:1.0;"/><!--SRC=[ZLPDJnjN5DtFhtXB838kQLLLMKLjqrOHI549MMKpWIaQrHuZUqpLdS4KLmA5DghKAbNIqarMbOpnn5_O_8Kt_wZdt3lFDeEfii2QUUz-d7Fkn_2m5llLk1n6EsL_p_Fk6NjkstQG7ZwFLbPAOLmDQglL-ieAhd3tjqtifUsd1-bXsh3jz1ZFPqKuTD93Ey5Ht_RSCHpWyGyyHZP9Z-p4ZkKeAFjXIPxI0_WSupU1TryplD7ijc_iq8uHxp9jQgHhEp4uQID31x-uIr_ERYGAy_VdhAUuRiHuJ-_S6N5tWVoGSDDJ4eHlKp6z1TiZcF22l2S4WATJWvV4zjAcNl5Gub4Xm6yhooDHvegtFC09imoPGz_5fKi74VP4tSuG-CGEzOLvH1RmlbJSNOIbUHFkOtAupdvmSvqXIEumxL2R2vO4SQ_mDoOcDPwAPkoV24F2INhWwYzkf0h5MI9IwmciYHreWD_mUC4mudrAkgfOGnBF-MW9uF8NKhH4_Z4u3uoQmuILSYhzoqQ2Rbg2yPscB5XBcrGH58bO94I96G37yrMy3OaXNDcK1FkQ5RAzx1vIZWHndcHwagUfoiBfTGQYJw8KhAX5I9kebXmOwOA6H1jaNk-aiz5dsZWtfmdIJT1zJM4iGDa1GodrSAhlXqftJ-QV45ggZJlCrvI3o9dhu3mnn9_57kZes4cM-LSWGUjZwFulv-zEN5UHh6CbewEne2f0qCOBb4TmOkbvNg6GxrDP3s2KYAnNi2ZSObG4JdR7o14SpjSA15_Ug1KFfhK2FWdvLk9VS3Eoy0wXCfbWeBdFaXcMjhgnWYpQI7QQEgd5xFw6EFqiO8Chq8XtujOnkaOKEDTrHFFPTWRvt50BR8NiMXd1pzZ1G8w-Gk4kqgRRArr9z1vm-ek4XXcpwBBaPb42RxB59lr1NuHFVvA08W5C_W0xsKEpSPhhz2BJfosdD3MH7kfmIRfLFFSnGTykZ2hLRRdgSTfdk_bOlYU51QGWGaTQ0V89BOOxOmykDcy8tGDqv8XRm5KaBzNj1JpjpLVmpMgYwybz2E_W_Y6Dk8Zkz3EPGpADixWpfChzh04FfPKpINDTmWyeuxmJkxREcRHL-lCjSaOmZFZznsuJFww5ItwfvyS9OwwpvqGHqzUoyUPMO5Vs32PdDaIpxs8sUR_aYUlnEV4BQJRoK3_hkl1acrqnwSC0_pAvVvkUbFmetjfOD_j1jHPM8hEsUl-Z-n-lhgsz269_RMah-Zwg_12PxKfvBom59WxBmRAtzFMJTLEhrAlRWTa9Qt4rV56FuRtiFVRtVVDjFQBT0yEtfQSRosRpaJiqZwBzi5g9oa4KUu-VRQYH-QOIR-vLOZ7-z9F2vs5iDeCgG9bd6zwNmNT-lHJ3TRko4qQx3ypMqwyAdtdhVhHRztUHA8YyBof8KFqHTvl_0G00]--></g></svg>